<?xml version="1.0" encoding="UTF-8"?>
<svg width="24px" height="24px" viewBox="0 0 24 24" version="1.1" xmlns="http://www.w3.org/2000/svg">
    <g stroke="none" stroke-width="1" fill="none" fill-rule="evenodd">
        <path d="M16,2 L4,2 C2.9,2 2,2.9 2,4 L2,16 C2,17.1 2.9,18 4,18 L16,18 C17.1,18 18,17.1 18,16 L18,4 C18,2.9 17.1,2 16,2 Z M16,16 L4,16 L4,4 L16,4 L16,16 Z" fill="#FFFFFF"/>
        <path d="M20,8 L20,20 C20,21.1 19.1,22 18,22 L6,22 L6,20 L18,20 L18,8 L20,8 Z" fill="#FFFFFF"/>
        <path d="M7,7 L13,7 L13,13 L7,13 L7,7 Z" fill="#FFFFFF"/>
    </g>
</svg>
